<?xml version="1.0" encoding="utf-8"?>
<!-- Generator: Adobe Illustrator 21.0.0, SVG Export Plug-In . SVG Version: 6.00 Build 0)  -->
<svg version="1.1" id="Layer_1" xmlns="http://www.w3.org/2000/svg" xmlns:xlink="http://www.w3.org/1999/xlink" x="0px" y="0px"
	 viewBox="0 0 129.5 150" xml:space="preserve">
<g id="Layer_1_1_">
</g>
<g id="Layer_2">
	<g>
		<g>
			<g>
				<path d="M1.2,49.7h7.9c0.6,0,1.2-0.5,1.2-1.2V18.8L46.9,45c0.4,0.3,1,0.3,1.4,0l6.8-4.9c0.3-0.2,0.5-0.6,0.5-0.9
					c0-0.4-0.2-0.7-0.5-0.9L1.9,0.2C1.5,0,1.1-0.1,0.7,0.1c-0.4,0.2-0.6,0.6-0.6,1v47.4C0.1,49.2,0.6,49.7,1.2,49.7z"/>
				<path d="M105.8,75c0-0.4-0.2-0.7-0.5-1L82.6,58c-0.4-0.3-0.9-0.3-1.4,0l-6.9,4.9c-0.3,0.2-0.5,0.6-0.5,0.9c0,0.4,0.2,0.7,0.5,1
					L88.9,75l-78.6,56.1v-29.7c0-0.6-0.5-1.2-1.2-1.2H1.2c-0.6,0-1.2,0.5-1.2,1.2v47.4c0,0.4,0.2,0.8,0.6,1c0.2,0.1,0.3,0.1,0.5,0.1
					s0.5,0,0.7-0.2L105.3,76C105.6,75.7,105.8,75.3,105.8,75z"/>
				<path d="M128.2,100.3h-7.9c-0.6,0-1.2,0.5-1.2,1.2v29.7l-37.5-26.8c-0.4-0.3-0.9-0.3-1.4,0l-6.8,4.9c-0.3,0.2-0.5,0.6-0.5,0.9
					c0,0.4,0.2,0.7,0.5,0.9l54.1,38.7c0.2,0.1,0.4,0.2,0.7,0.2c0.2,0,0.3,0,0.5-0.1c0.4-0.2,0.6-0.6,0.6-1v-47.4
					C129.4,100.8,128.8,100.3,128.2,100.3z"/>
				<path d="M128.7,0.1c-0.4-0.2-0.8-0.1-1.2,0.1L24.2,74c-0.3,0.2-0.5,0.6-0.5,0.9c0,0.4,0.2,0.7,0.5,0.9l22.9,16.4
					c0.2,0.1,0.4,0.2,0.7,0.2s0.5,0,0.7-0.2l6.8-4.9c0.3-0.2,0.5-0.6,0.5-0.9c0-0.4-0.2-0.7-0.5-0.9L40.5,75l78.7-56.1v29.7
					c0,0.6,0.5,1.2,1.2,1.2h7.9c0.6,0,1.2-0.5,1.2-1.2V1.2C129.4,0.7,129.1,0.3,128.7,0.1z"/>
			</g>
		</g>
	</g>
</g>
</svg>
