<?xml version="1.0" encoding="utf-8"?>
<!-- Generator: Adobe Illustrator 21.0.0, SVG Export Plug-In . SVG Version: 6.00 Build 0)  -->
<svg version="1.1" id="Layer_1" xmlns="http://www.w3.org/2000/svg" xmlns:xlink="http://www.w3.org/1999/xlink" x="0px" y="0px"
	 viewBox="0 0 1148.7 149.6" xml:space="preserve">
<g>
	<g>
		<path d="M72.7,87.2h40.6V133L75,132.8c-34.8,0-62-26.5-62-60.3c0-35.8,30.2-59.9,58.4-59.9c16.7,0,30.3,1.7,42.3,9.9l3.7,2.6
			l5.9-11.2l-3-2C105,1.7,87.8,0.3,71.4,0.3C32.7,0.3,0,33.4,0,72.6c0,40.8,32.9,72.7,75,72.7h51.1V74.5H72.7V87.2L72.7,87.2z"/>
		<polygon points="145.9,145.2 194,145.2 194,133.4 166.3,133.4 218.5,27.9 270.4,133.4 245.2,133.4 245.2,145.2 291,145.2 
			218.5,0.1 		"/>
		<path d="M361.6,68.2l-24.5-7.8c-19.4-6.1-21.6-15.8-21.6-22.5c0-17.3,16.3-25.2,31.4-25.2c15.6,0,28.1,7.9,31,19.7l1,4.2l12.3-4.1
			l-1-3.7c-4.8-17.3-21.7-28.6-43-28.6c-25.9,0-44.6,15.9-44.6,37.8c0,16.4,10.3,27.9,30.7,34.4l24.5,7.8
			c11.5,3.5,23.9,12.1,23.9,25.9c0,13.3-11.8,26.7-34.5,26.7c-20.3,0-32.8-11.1-37.3-20.7l-1.5-3.2l-12.7,4.4l2.1,4.1
			c6.7,13.5,23.3,27.8,49.5,27.8c31.2,0,47.5-19.7,47.5-39.1C394.6,85.7,376.9,72.9,361.6,68.2z"/>
		<polygon points="466.9,145.2 553.4,145.2 553.4,132.8 479.6,132.8 479.6,82.4 544.2,82.4 544.2,70 479.6,70 479.6,16.8 
			553.4,16.8 553.4,4.4 466.9,4.4 		"/>
		<polygon points="677.4,115.1 580.9,0.1 580.9,145.2 593.6,145.2 593.6,34.4 690.2,149.6 690.2,4.4 677.4,4.4 		"/>
		<polygon points="1016,115.1 919.5,0.1 919.5,145.2 932.4,145.2 932.4,34.4 1028.8,149.6 1028.8,4.4 1016,4.4 		"/>
		<rect x="874.1" y="4.4" width="12.8" height="140.8"/>
		<polygon points="1148.7,16.8 1148.7,4.4 1062.2,4.4 1062.2,145.2 1148.7,145.2 1148.7,132.8 1075,132.8 1075,82.4 1139.4,82.4 
			1139.4,70 1075,70 1075,16.8 		"/>
		<path d="M789.4,87H830v45.8l-38.3-0.2c-34.8,0-62-26.5-62-60.3c0-35.8,30.2-59.9,58.4-59.9c16.7,0,30.3,1.7,42.3,9.9l3.7,2.6
			l5.9-11.2l-3-2C821.7,1.4,804.5,0,788.1,0c-38.7,0-71.4,33.1-71.4,72.3c0,40.8,32.9,72.7,75,72.7h51.1V74.2h-53.4L789.4,87
			L789.4,87z"/>
	</g>
</g>
</svg>
